{
    "frames": [
        { "pts_time": "0.000000" },
        { "pts_time": "0.033333" },
        { "pts_time": "0.066667" },
        { "pts_time": "0.100000" },
        { "pts_time": "0.133333" },
        { "pts_time": "0.166667" },
        { "pts_time": "0.200000" },
        { "pts_time": "0.233333" },
        { "pts_time": "0.266667" },
        { "pts_time": "0.300000" },
        { "pts_time": "0.333333" },
        { "pts_time": "0.366667" },
        { "pts_time": "0.400000" },
        { "pts_time": "0.433333" },
        { "pts_time": "0.466667" },
        { "pts_time": "0.500000" },
        { "pts_time": "0.533333" },
        { "pts_time": "0.566667" },
        { "pts_time": "0.600000" },
        { "pts_time": "0.633333" },
        { "pts_time": "0.666667" },
        { "pts_time": "0.700000" },
        { "pts_time": "0.733333" },
        { "pts_time": "0.766667" },
        { "pts_time": "0.800000" },
        { "pts_time": "0.833333" },
        { "pts_time": "0.866667" },
        { "pts_time": "0.900000" },
        { "pts_time": "0.933333" },
        { "pts_time": "0.966667" },
        { "pts_time": "1.000000" },
        { "pts_time": "1.033333" },
        { "pts_time": "1.066667" },
        { "pts_time": "1.100000" },
        { "pts_time": "1.133333" },
        { "pts_time": "1.166667" },
        { "pts_time": "1.200000" },
        { "pts_time": "1.233333" },
        { "pts_time": "1.266667" },
        { "pts_time": "1.300000" },
        { "pts_time": "1.333333" },
        { "pts_time": "1.366667" },
        { "pts_time": "1.400000" },
        { "pts_time": "1.433333" },
        { "pts_time": "1.466667" },
        { "pts_time": "1.500000" },
        { "pts_time": "1.533333" },
        { "pts_time": "1.566667" },
        { "pts_time": "1.600000" },
        { "pts_time": "1.633333" },
        { "pts_time": "1.666667" },
        { "pts_time": "1.700000" },
        { "pts_time": "1.733333" },
        { "pts_time": "1.766667" },
        { "pts_time": "1.800000" },
        { "pts_time": "1.833333" },
        { "pts_time": "1.866667" },
        { "pts_time": "1.900000" },
        { "pts_time": "1.933333" },
        { "pts_time": "1.966667" },
        { "pts_time": "2.000000" },
        { "pts_time": "2.033333" },
        { "pts_time": "2.066667" },
        { "pts_time": "2.100000" },
        { "pts_time": "2.133333" },
        { "pts_time": "2.166667" },
        { "pts_time": "2.200000" },
        { "pts_time": "2.233333" },
        { "pts_time": "2.266667" },
        { "pts_time": "2.300000" },
        { "pts_time": "2.333333" },
        { "pts_time": "2.366667" },
        { "pts_time": "2.400000" },
        { "pts_time": "2.433333" },
        { "pts_time": "2.466667" },
        { "pts_time": "2.500000" },
        { "pts_time": "2.533333" },
        { "pts_time": "2.566667" },
        { "pts_time": "2.600000" },
        { "pts_time": "2.633333" },
        { "pts_time": "2.666667" },
        { "pts_time": "2.700000" },
        { "pts_time": "2.733333" },
        { "pts_time": "2.766667" },
        { "pts_time": "2.800000" },
        { "pts_time": "2.833333" },
        { "pts_time": "2.866667" },
        { "pts_time": "2.900000" },
        { "pts_time": "2.933333" },
        { "pts_time": "2.966667" },
        { "pts_time": "3.000000" },
        { "pts_time": "3.033333" },
        { "pts_time": "3.066667" },
        { "pts_time": "3.100000" },
        { "pts_time": "3.133333" },
        { "pts_time": "3.166667" },
        { "pts_time": "3.200000" },
        { "pts_time": "3.233333" },
        { "pts_time": "3.266667" },
        { "pts_time": "3.300000" },
        { "pts_time": "3.333333" },
        { "pts_time": "3.366667" },
        { "pts_time": "3.400000" },
        { "pts_time": "3.433333" },
        { "pts_time": "3.466667" },
        { "pts_time": "3.500000" },
        { "pts_time": "3.533333" },
        { "pts_time": "3.566667" },
        { "pts_time": "3.600000" },
        { "pts_time": "3.633333" },
        { "pts_time": "3.666667" },
        { "pts_time": "3.700000" },
        { "pts_time": "3.733333" },
        { "pts_time": "3.766667" },
        { "pts_time": "3.800000" },
        { "pts_time": "3.833333" },
        { "pts_time": "3.866667" },
        { "pts_time": "3.900000" },
        { "pts_time": "3.933333" },
        { "pts_time": "3.966667" },
        { "pts_time": "4.000000" },
        { "pts_time": "4.033333" },
        { "pts_time": "4.066667" },
        { "pts_time": "4.100000" },
        { "pts_time": "4.133333" },
        { "pts_time": "4.166667" },
        { "pts_time": "4.200000" },
        { "pts_time": "4.233333" },
        { "pts_time": "4.266667" },
        { "pts_time": "4.300000" },
        { "pts_time": "4.333333" },
        { "pts_time": "4.366667" },
        { "pts_time": "4.400000" },
        { "pts_time": "4.433333" },
        { "pts_time": "4.466667" },
        { "pts_time": "4.500000" },
        { "pts_time": "4.533333" },
        { "pts_time": "4.566667" },
        { "pts_time": "4.600000" },
        { "pts_time": "4.633333" },
        { "pts_time": "4.666667" },
        { "pts_time": "4.700000" },
        { "pts_time": "4.733333" },
        { "pts_time": "4.766667" },
        { "pts_time": "4.800000" },
        { "pts_time": "4.833333" },
        { "pts_time": "4.866667" },
        { "pts_time": "4.900000" },
        { "pts_time": "4.933333" },
        { "pts_time": "4.966667" },
        { "pts_time": "5.000000" },
        { "pts_time": "5.033333" },
        { "pts_time": "5.066667" },
        { "pts_time": "5.100000" },
        { "pts_time": "5.133333" },
        { "pts_time": "5.166667" },
        { "pts_time": "5.200000" },
        { "pts_time": "5.233333" },
        { "pts_time": "5.266667" },
        { "pts_time": "5.300000" },
        { "pts_time": "5.333333" },
        { "pts_time": "5.366667" },
        { "pts_time": "5.400000" },
        { "pts_time": "5.433333" },
        { "pts_time": "5.466667" },
        { "pts_time": "5.500000" },
        { "pts_time": "5.533333" },
        { "pts_time": "5.566667" },
        { "pts_time": "5.600000" },
        { "pts_time": "5.633333" },
        { "pts_time": "5.666667" },
        { "pts_time": "5.700000" },
        { "pts_time": "5.733333" },
        { "pts_time": "5.766667" },
        { "pts_time": "5.800000" },
        { "pts_time": "5.833333" },
        { "pts_time": "5.866667" },
        { "pts_time": "5.900000" },
        { "pts_time": "5.933333" },
        { "pts_time": "5.966667" },
        { "pts_time": "6.000000" },
        { "pts_time": "6.033333" },
        { "pts_time": "6.066667" },
        { "pts_time": "6.100000" },
        { "pts_time": "6.133333" },
        { "pts_time": "6.166667" },
        { "pts_time": "6.200000" },
        { "pts_time": "6.233333" },
        { "pts_time": "6.266667" },
        { "pts_time": "6.300000" },
        { "pts_time": "6.333333" },
        { "pts_time": "6.366667" },
        { "pts_time": "6.400000" },
        { "pts_time": "6.433333" },
        { "pts_time": "6.466667" },
        { "pts_time": "6.500000" },
        { "pts_time": "6.533333" },
        { "pts_time": "6.566667" },
        { "pts_time": "6.600000" },
        { "pts_time": "6.633333" },
        { "pts_time": "6.666667" },
        { "pts_time": "6.700000" },
        { "pts_time": "6.733333" },
        { "pts_time": "6.766667" },
        { "pts_time": "6.800000" },
        { "pts_time": "6.833333" },
        { "pts_time": "6.866667" },
        { "pts_time": "6.900000" },
        { "pts_time": "6.933333" },
        { "pts_time": "6.966667" },
        { "pts_time": "7.000000" },
        { "pts_time": "7.033333" },
        { "pts_time": "7.066667" },
        { "pts_time": "7.100000" },
        { "pts_time": "7.133333" },
        { "pts_time": "7.166667" },
        { "pts_time": "7.200000" },
        { "pts_time": "7.233333" },
        { "pts_time": "7.266667" },
        { "pts_time": "7.300000" },
        { "pts_time": "7.333333" },
        { "pts_time": "7.366667" },
        { "pts_time": "7.400000" },
        { "pts_time": "7.433333" },
        { "pts_time": "7.466667" },
        { "pts_time": "7.500000" },
        { "pts_time": "7.533333" },
        { "pts_time": "7.566667" },
        { "pts_time": "7.600000" },
        { "pts_time": "7.633333" },
        { "pts_time": "7.666667" },
        { "pts_time": "7.700000" },
        { "pts_time": "7.733333" },
        { "pts_time": "7.766667" },
        { "pts_time": "7.800000" },
        { "pts_time": "7.833333" },
        { "pts_time": "7.866667" },
        { "pts_time": "7.900000" },
        { "pts_time": "7.933333" },
        { "pts_time": "7.966667" },
        { "pts_time": "8.000000" },
        { "pts_time": "8.033333" },
        { "pts_time": "8.066667" },
        { "pts_time": "8.100000" },
        { "pts_time": "8.133333" },
        { "pts_time": "8.166667" },
        { "pts_time": "8.200000" },
        { "pts_time": "8.233333" },
        { "pts_time": "8.266667" },
        { "pts_time": "8.300000" },
        { "pts_time": "8.333333" },
        { "pts_time": "8.366667" },
        { "pts_time": "8.400000" },
        { "pts_time": "8.433333" },
        { "pts_time": "8.466667" },
        { "pts_time": "8.500000" },
        { "pts_time": "8.533333" },
        { "pts_time": "8.566667" },
        { "pts_time": "8.600000" },
        { "pts_time": "8.633333" },
        { "pts_time": "8.666667" },
        { "pts_time": "8.700000" },
        { "pts_time": "8.733333" },
        { "pts_time": "8.766667" },
        { "pts_time": "8.800000" },
        { "pts_time": "8.833333" },
        { "pts_time": "8.866667" },
        { "pts_time": "8.900000" },
        { "pts_time": "8.933333" },
        { "pts_time": "8.966667" },
        { "pts_time": "9.000000" },
        { "pts_time": "9.033333" },
        { "pts_time": "9.066667" },
        { "pts_time": "9.100000" },
        { "pts_time": "9.133333" },
        { "pts_time": "9.166667" },
        { "pts_time": "9.200000" },
        { "pts_time": "9.233333" },
        { "pts_time": "9.266667" },
        { "pts_time": "9.300000" },
        { "pts_time": "9.333333" },
        { "pts_time": "9.366667" },
        { "pts_time": "9.400000" },
        { "pts_time": "9.433333" },
        { "pts_time": "9.466667" },
        { "pts_time": "9.500000" },
        { "pts_time": "9.533333" },
        { "pts_time": "9.566667" },
        { "pts_time": "9.600000" },
        { "pts_time": "9.633333" },
        { "pts_time": "9.666667" },
        { "pts_time": "9.700000" },
        { "pts_time": "9.733333" },
        { "pts_time": "9.766667" },
        { "pts_time": "9.800000" },
        { "pts_time": "9.833333" },
        { "pts_time": "9.866667" },
        { "pts_time": "9.900000" },
        { "pts_time": "9.933333" },
        { "pts_time": "9.966667" },
        { "pts_time": "10.000000" },
        { "pts_time": "10.033333" },
        { "pts_time": "10.066667" },
        { "pts_time": "10.100000" },
        { "pts_time": "10.133333" },
        { "pts_time": "10.166667" },
        { "pts_time": "10.200000" },
        { "pts_time": "10.233333" },
        { "pts_time": "10.266667" },
        { "pts_time": "10.300000" },
        { "pts_time": "10.333333" },
        { "pts_time": "10.366667" },
        { "pts_time": "10.400000" },
        { "pts_time": "10.433333" },
        { "pts_time": "10.466667" },
        { "pts_time": "10.500000" },
        { "pts_time": "10.533333" },
        { "pts_time": "10.566667" },
        { "pts_time": "10.600000" },
        { "pts_time": "10.633333" },
        { "pts_time": "10.666667" },
        { "pts_time": "10.700000" },
        { "pts_time": "10.733333" },
        { "pts_time": "10.766667" },
        { "pts_time": "10.800000" },
        { "pts_time": "10.833333" },
        { "pts_time": "10.866667" },
        { "pts_time": "10.900000" },
        { "pts_time": "10.933333" },
        { "pts_time": "10.966667" },
        { "pts_time": "11.000000" },
        { "pts_time": "11.033333" },
        { "pts_time": "11.066667" },
        { "pts_time": "11.100000" },
        { "pts_time": "11.133333" },
        { "pts_time": "11.166667" },
        { "pts_time": "11.200000" },
        { "pts_time": "11.233333" },
        { "pts_time": "11.266667" },
        { "pts_time": "11.300000" },
        { "pts_time": "11.333333" },
        { "pts_time": "11.366667" },
        { "pts_time": "11.400000" },
        { "pts_time": "11.433333" },
        { "pts_time": "11.466667" },
        { "pts_time": "11.500000" },
        { "pts_time": "11.533333" },
        { "pts_time": "11.566667" },
        { "pts_time": "11.600000" },
        { "pts_time": "11.633333" },
        { "pts_time": "11.666667" },
        { "pts_time": "11.700000" },
        { "pts_time": "11.733333" },
        { "pts_time": "11.766667" },
        { "pts_time": "11.800000" },
        { "pts_time": "11.833333" },
        { "pts_time": "11.866667" },
        { "pts_time": "11.900000" },
        { "pts_time": "11.933333" },
        { "pts_time": "11.966667" },
        { "pts_time": "12.000000" },
        { "pts_time": "12.033333" },
        { "pts_time": "12.066667" },
        { "pts_time": "12.100000" },
        { "pts_time": "12.133333" },
        { "pts_time": "12.166667" },
        { "pts_time": "12.200000" },
        { "pts_time": "12.233333" },
        { "pts_time": "12.266667" },
        { "pts_time": "12.300000" },
        { "pts_time": "12.333333" },
        { "pts_time": "12.366667" },
        { "pts_time": "12.400000" },
        { "pts_time": "12.433333" },
        { "pts_time": "12.466667" },
        { "pts_time": "12.500000" },
        { "pts_time": "12.533333" },
        { "pts_time": "12.566667" },
        { "pts_time": "12.600000" },
        { "pts_time": "12.633333" },
        { "pts_time": "12.666667" },
        { "pts_time": "12.700000" },
        { "pts_time": "12.733333" },
        { "pts_time": "12.766667" },
        { "pts_time": "12.800000" },
        { "pts_time": "12.833333" },
        { "pts_time": "12.866667" },
        { "pts_time": "12.900000" },
        { "pts_time": "12.933333" },
        { "pts_time": "12.966667" },
        { "pts_time": "13.000000" },
        { "pts_time": "13.033333" },
        { "pts_time": "13.066667" },
        { "pts_time": "13.100000" },
        { "pts_time": "13.133333" },
        { "pts_time": "13.166667" },
        { "pts_time": "13.200000" },
        { "pts_time": "13.233333" },
        { "pts_time": "13.266667" },
        { "pts_time": "13.300000" },
        { "pts_time": "13.333333" },
        { "pts_time": "13.366667" },
        { "pts_time": "13.400000" },
        { "pts_time": "13.433333" },
        { "pts_time": "13.466667" },
        { "pts_time": "13.500000" },
        { "pts_time": "13.533333" },
        { "pts_time": "13.566667" },
        { "pts_time": "13.600000" },
        { "pts_time": "13.633333" },
        { "pts_time": "13.666667" },
        { "pts_time": "13.700000" },
        { "pts_time": "13.733333" },
        { "pts_time": "13.766667" },
        { "pts_time": "13.800000" },
        { "pts_time": "13.833333" },
        { "pts_time": "13.866667" },
        { "pts_time": "13.900000" },
        { "pts_time": "13.933333" },
        { "pts_time": "13.966667" },
        { "pts_time": "14.000000" },
        { "pts_time": "14.033333" },
        { "pts_time": "14.066667" },
        { "pts_time": "14.100000" },
        { "pts_time": "14.133333" },
        { "pts_time": "14.166667" },
        { "pts_time": "14.200000" },
        { "pts_time": "14.233333" },
        { "pts_time": "14.266667" },
        { "pts_time": "14.300000" },
        { "pts_time": "14.333333" },
        { "pts_time": "14.366667" },
        { "pts_time": "14.400000" },
        { "pts_time": "14.433333" },
        { "pts_time": "14.466667" },
        { "pts_time": "14.500000" },
        { "pts_time": "14.533333" },
        { "pts_time": "14.566667" },
        { "pts_time": "14.600000" },
        { "pts_time": "14.633333" },
        { "pts_time": "14.666667" },
        { "pts_time": "14.700000" },
        { "pts_time": "14.733333" },
        { "pts_time": "14.766667" },
        { "pts_time": "14.800000" },
        { "pts_time": "14.833333" },
        { "pts_time": "14.866667" },
        { "pts_time": "14.900000" },
        { "pts_time": "14.933333" },
        { "pts_time": "14.966667" },
        { "pts_time": "15.000000" },
        { "pts_time": "15.033333" },
        { "pts_time": "15.066667" },
        { "pts_time": "15.100000" },
        { "pts_time": "15.133333" },
        { "pts_time": "15.166667" },
        { "pts_time": "15.200000" },
        { "pts_time": "15.233333" },
        { "pts_time": "15.266667" },
        { "pts_time": "15.300000" },
        { "pts_time": "15.333333" },
        { "pts_time": "15.366667" },
        { "pts_time": "15.400000" },
        { "pts_time": "15.433333" },
        { "pts_time": "15.466667" },
        { "pts_time": "15.500000" },
        { "pts_time": "15.533333" },
        { "pts_time": "15.566667" },
        { "pts_time": "15.600000" },
        { "pts_time": "15.633333" },
        { "pts_time": "15.666667" },
        { "pts_time": "15.700000" },
        { "pts_time": "15.733333" },
        { "pts_time": "15.766667" },
        { "pts_time": "15.800000" },
        { "pts_time": "15.833333" },
        { "pts_time": "15.866667" },
        { "pts_time": "15.900000" },
        { "pts_time": "15.933333" },
        { "pts_time": "15.966667" },
        { "pts_time": "16.000000" },
        { "pts_time": "16.033333" },
        { "pts_time": "16.066667" },
        { "pts_time": "16.100000" },
        { "pts_time": "16.133333" },
        { "pts_time": "16.166667" },
        { "pts_time": "16.200000" },
        { "pts_time": "16.233333" },
        { "pts_time": "16.266667" },
        { "pts_time": "16.300000" },
        { "pts_time": "16.333333" },
        { "pts_time": "16.366667" },
        { "pts_time": "16.400000" },
        { "pts_time": "16.433333" },
        { "pts_time": "16.466667" },
        { "pts_time": "16.500000" },
        { "pts_time": "16.533333" },
        { "pts_time": "16.566667" },
        { "pts_time": "16.600000" },
        { "pts_time": "16.633333" },
        { "pts_time": "16.666667" },
        { "pts_time": "16.700000" },
        { "pts_time": "16.733333" },
        { "pts_time": "16.766667" },
        { "pts_time": "16.800000" },
        { "pts_time": "16.833333" },
        { "pts_time": "16.866667" },
        { "pts_time": "16.900000" },
        { "pts_time": "16.933333" },
        { "pts_time": "16.966667" },
        { "pts_time": "17.000000" },
        { "pts_time": "17.033333" },
        { "pts_time": "17.066667" },
        { "pts_time": "17.100000" },
        { "pts_time": "17.133333" },
        { "pts_time": "17.166667" },
        { "pts_time": "17.200000" },
        { "pts_time": "17.233333" },
        { "pts_time": "17.266667" },
        { "pts_time": "17.300000" },
        { "pts_time": "17.333333" },
        { "pts_time": "17.366667" },
        { "pts_time": "17.400000" },
        { "pts_time": "17.433333" },
        { "pts_time": "17.466667" },
        { "pts_time": "17.500000" },
        { "pts_time": "17.533333" },
        { "pts_time": "17.566667" },
        { "pts_time": "17.600000" },
        { "pts_time": "17.633333" },
        { "pts_time": "17.666667" },
        { "pts_time": "17.700000" },
        { "pts_time": "17.733333" },
        { "pts_time": "17.766667" },
        { "pts_time": "17.800000" },
        { "pts_time": "17.833333" },
        { "pts_time": "17.866667" },
        { "pts_time": "17.900000" },
        { "pts_time": "17.933333" },
        { "pts_time": "17.966667" },
        { "pts_time": "18.000000" },
        { "pts_time": "18.033333" },
        { "pts_time": "18.066667" },
        { "pts_time": "18.100000" },
        { "pts_time": "18.133333" },
        { "pts_time": "18.166667" },
        { "pts_time": "18.200000" },
        { "pts_time": "18.233333" },
        { "pts_time": "18.266667" },
        { "pts_time": "18.300000" },
        { "pts_time": "18.333333" },
        { "pts_time": "18.366667" },
        { "pts_time": "18.400000" },
        { "pts_time": "18.433333" },
        { "pts_time": "18.466667" },
        { "pts_time": "18.500000" },
        { "pts_time": "18.533333" },
        { "pts_time": "18.566667" },
        { "pts_time": "18.600000" },
        { "pts_time": "18.633333" },
        { "pts_time": "18.666667" },
        { "pts_time": "18.700000" },
        { "pts_time": "18.733333" },
        { "pts_time": "18.766667" },
        { "pts_time": "18.800000" },
        { "pts_time": "18.833333" },
        { "pts_time": "18.866667" },
        { "pts_time": "18.900000" },
        { "pts_time": "18.933333" },
        { "pts_time": "18.966667" },
        { "pts_time": "19.000000" },
        { "pts_time": "19.033333" },
        { "pts_time": "19.066667" },
        { "pts_time": "19.100000" },
        { "pts_time": "19.133333" },
        { "pts_time": "19.166667" },
        { "pts_time": "19.200000" },
        { "pts_time": "19.233333" },
        { "pts_time": "19.266667" },
        { "pts_time": "19.300000" },
        { "pts_time": "19.333333" },
        { "pts_time": "19.366667" },
        { "pts_time": "19.400000" },
        { "pts_time": "19.433333" },
        { "pts_time": "19.466667" },
        { "pts_time": "19.500000" },
        { "pts_time": "19.533333" },
        { "pts_time": "19.566667" },
        { "pts_time": "19.600000" },
        { "pts_time": "19.633333" },
        { "pts_time": "19.666667" },
        { "pts_time": "19.700000" },
        { "pts_time": "19.733333" },
        { "pts_time": "19.766667" },
        { "pts_time": "19.800000" },
        { "pts_time": "19.833333" },
        { "pts_time": "19.866667" },
        { "pts_time": "19.900000" },
        { "pts_time": "19.933333" },
        { "pts_time": "19.966667" },
        { "pts_time": "20.000000" },
        { "pts_time": "20.033333" },
        { "pts_time": "20.066667" },
        { "pts_time": "20.100000" },
        { "pts_time": "20.133333" },
        { "pts_time": "20.166667" },
        { "pts_time": "20.200000" },
        { "pts_time": "20.233333" },
        { "pts_time": "20.266667" },
        { "pts_time": "20.300000" },
        { "pts_time": "20.333333" },
        { "pts_time": "20.366667" },
        { "pts_time": "20.400000" },
        { "pts_time": "20.433333" },
        { "pts_time": "20.466667" },
        { "pts_time": "20.500000" },
        { "pts_time": "20.533333" },
        { "pts_time": "20.566667" },
        { "pts_time": "20.600000" },
        { "pts_time": "20.633333" },
        { "pts_time": "20.666667" },
        { "pts_time": "20.700000" },
        { "pts_time": "20.733333" },
        { "pts_time": "20.766667" },
        { "pts_time": "20.800000" },
        { "pts_time": "20.833333" },
        { "pts_time": "20.866667" },
        { "pts_time": "20.900000" },
        { "pts_time": "20.933333" },
        { "pts_time": "20.966667" },
        { "pts_time": "21.000000" },
        { "pts_time": "21.033333" },
        { "pts_time": "21.066667" },
        { "pts_time": "21.100000" },
        { "pts_time": "21.133333" },
        { "pts_time": "21.166667" },
        { "pts_time": "21.200000" },
        { "pts_time": "21.233333" },
        { "pts_time": "21.266667" },
        { "pts_time": "21.300000" },
        { "pts_time": "21.333333" },
        { "pts_time": "21.366667" },
        { "pts_time": "21.400000" },
        { "pts_time": "21.433333" },
        { "pts_time": "21.466667" },
        { "pts_time": "21.500000" },
        { "pts_time": "21.533333" },
        { "pts_time": "21.566667" },
        { "pts_time": "21.600000" },
        { "pts_time": "21.633333" },
        { "pts_time": "21.666667" },
        { "pts_time": "21.700000" },
        { "pts_time": "21.733333" },
        { "pts_time": "21.766667" },
        { "pts_time": "21.800000" },
        { "pts_time": "21.833333" },
        { "pts_time": "21.866667" },
        { "pts_time": "21.900000" },
        { "pts_time": "21.933333" },
        { "pts_time": "21.966667" },
        { "pts_time": "22.000000" },
        { "pts_time": "22.033333" },
        { "pts_time": "22.066667" },
        { "pts_time": "22.100000" },
        { "pts_time": "22.133333" },
        { "pts_time": "22.166667" },
        { "pts_time": "22.200000" },
        { "pts_time": "22.233333" },
        { "pts_time": "22.266667" },
        { "pts_time": "22.300000" },
        { "pts_time": "22.333333" },
        { "pts_time": "22.366667" },
        { "pts_time": "22.400000" },
        { "pts_time": "22.433333" },
        { "pts_time": "22.466667" },
        { "pts_time": "22.500000" },
        { "pts_time": "22.533333" },
        { "pts_time": "22.566667" },
        { "pts_time": "22.600000" },
        { "pts_time": "22.633333" },
        { "pts_time": "22.666667" },
        { "pts_time": "22.700000" },
        { "pts_time": "22.733333" },
        { "pts_time": "22.766667" },
        { "pts_time": "22.800000" },
        { "pts_time": "22.833333" },
        { "pts_time": "22.866667" },
        { "pts_time": "22.900000" },
        { "pts_time": "22.933333" },
        { "pts_time": "22.966667" },
        { "pts_time": "23.000000" },
        { "pts_time": "23.033333" },
        { "pts_time": "23.066667" },
        { "pts_time": "23.100000" },
        { "pts_time": "23.133333" },
        { "pts_time": "23.166667" },
        { "pts_time": "23.200000" },
        { "pts_time": "23.233333" },
        { "pts_time": "23.266667" },
        { "pts_time": "23.300000" },
        { "pts_time": "23.333333" },
        { "pts_time": "23.366667" },
        { "pts_time": "23.400000" },
        { "pts_time": "23.433333" },
        { "pts_time": "23.466667" },
        { "pts_time": "23.500000" },
        { "pts_time": "23.533333" },
        { "pts_time": "23.566667" },
        { "pts_time": "23.600000" },
        { "pts_time": "23.633333" },
        { "pts_time": "23.666667" },
        { "pts_time": "23.700000" },
        { "pts_time": "23.733333" },
        { "pts_time": "23.766667" },
        { "pts_time": "23.800000" },
        { "pts_time": "23.833333" },
        { "pts_time": "23.866667" },
        { "pts_time": "23.900000" },
        { "pts_time": "23.933333" },
        { "pts_time": "23.966667" },
        { "pts_time": "24.000000" },
        { "pts_time": "24.033333" },
        { "pts_time": "24.066667" },
        { "pts_time": "24.100000" },
        { "pts_time": "24.133333" },
        { "pts_time": "24.166667" },
        { "pts_time": "24.200000" },
        { "pts_time": "24.233333" },
        { "pts_time": "24.266667" },
        { "pts_time": "24.300000" },
        { "pts_time": "24.333333" },
        { "pts_time": "24.366667" },
        { "pts_time": "24.400000" },
        { "pts_time": "24.433333" },
        { "pts_time": "24.466667" },
        { "pts_time": "24.500000" },
        { "pts_time": "24.533333" },
        { "pts_time": "24.566667" },
        { "pts_time": "24.600000" },
        { "pts_time": "24.633333" },
        { "pts_time": "24.666667" },
        { "pts_time": "24.700000" },
        { "pts_time": "24.733333" },
        { "pts_time": "24.766667" },
        { "pts_time": "24.800000" },
        { "pts_time": "24.833333" },
        { "pts_time": "24.866667" },
        { "pts_time": "24.900000" },
        { "pts_time": "24.933333" },
        { "pts_time": "24.966667" },
        { "pts_time": "25.000000" },
        { "pts_time": "25.033333" },
        { "pts_time": "25.066667" },
        { "pts_time": "25.100000" },
        { "pts_time": "25.133333" },
        { "pts_time": "25.166667" },
        { "pts_time": "25.200000" },
        { "pts_time": "25.233333" },
        { "pts_time": "25.266667" },
        { "pts_time": "25.300000" },
        { "pts_time": "25.333333" },
        { "pts_time": "25.366667" },
        { "pts_time": "25.400000" },
        { "pts_time": "25.433333" },
        { "pts_time": "25.466667" },
        { "pts_time": "25.500000" },
        { "pts_time": "25.533333" },
        { "pts_time": "25.566667" },
        { "pts_time": "25.600000" },
        { "pts_time": "25.633333" },
        { "pts_time": "25.666667" },
        { "pts_time": "25.700000" },
        { "pts_time": "25.733333" },
        { "pts_time": "25.766667" },
        { "pts_time": "25.800000" },
        { "pts_time": "25.833333" },
        { "pts_time": "25.866667" },
        { "pts_time": "25.900000" },
        { "pts_time": "25.933333" },
        { "pts_time": "25.966667" },
        { "pts_time": "26.000000" },
        { "pts_time": "26.033333" },
        { "pts_time": "26.066667" },
        { "pts_time": "26.100000" },
        { "pts_time": "26.133333" },
        { "pts_time": "26.166667" },
        { "pts_time": "26.200000" },
        { "pts_time": "26.233333" },
        { "pts_time": "26.266667" },
        { "pts_time": "26.300000" },
        { "pts_time": "26.333333" },
        { "pts_time": "26.366667" },
        { "pts_time": "26.400000" },
        { "pts_time": "26.433333" },
        { "pts_time": "26.466667" },
        { "pts_time": "26.500000" },
        { "pts_time": "26.533333" },
        { "pts_time": "26.566667" },
        { "pts_time": "26.600000" },
        { "pts_time": "26.633333" },
        { "pts_time": "26.666667" },
        { "pts_time": "26.700000" },
        { "pts_time": "26.733333" },
        { "pts_time": "26.766667" },
        { "pts_time": "26.800000" },
        { "pts_time": "26.833333" },
        { "pts_time": "26.866667" },
        { "pts_time": "26.900000" },
        { "pts_time": "26.933333" },
        { "pts_time": "26.966667" },
        { "pts_time": "27.000000" },
        { "pts_time": "27.033333" },
        { "pts_time": "27.066667" },
        { "pts_time": "27.100000" },
        { "pts_time": "27.133333" },
        { "pts_time": "27.166667" },
        { "pts_time": "27.200000" },
        { "pts_time": "27.233333" },
        { "pts_time": "27.266667" },
        { "pts_time": "27.300000" },
        { "pts_time": "27.333333" },
        { "pts_time": "27.366667" },
        { "pts_time": "27.400000" },
        { "pts_time": "27.433333" },
        { "pts_time": "27.466667" },
        { "pts_time": "27.500000" },
        { "pts_time": "27.533333" },
        { "pts_time": "27.566667" },
        { "pts_time": "27.600000" },
        { "pts_time": "27.633333" },
        { "pts_time": "27.666667" },
        { "pts_time": "27.700000" },
        { "pts_time": "27.733333" },
        { "pts_time": "27.766667" },
        { "pts_time": "27.800000" },
        { "pts_time": "27.833333" },
        { "pts_time": "27.866667" },
        { "pts_time": "27.900000" },
        { "pts_time": "27.933333" },
        { "pts_time": "27.966667" }
    ]
}
